<?xml version="1.0" encoding="UTF-8"?>
<svg width="15px" height="15px" viewBox="0 0 15 15" version="1.1" xmlns="http://www.w3.org/2000/svg" xmlns:xlink="http://www.w3.org/1999/xlink">
    <!-- Generator: Sketch 51.3 (57544) - http://www.bohemiancoding.com/sketch -->
    <title>Square</title>
    <desc>Created with Sketch.</desc>
    <defs></defs>
    <g id="Page-1" stroke="none" stroke-width="1" fill="none" fill-rule="evenodd">
        <g id="Blisk---Screenshot-Editor-Copy" transform="translate(-162.000000, -163.000000)" fill="#979EAB" fill-rule="nonzero">
            <g id="Group" transform="translate(158.000000, 90.000000)">
                <g id="Square" transform="translate(4.000000, 73.000000)">
                    <path d="M14.325,0 C13.65,0 13.65,0 13.65,0.675675676 C13.65,1.35135135 13.65,1.35135135 14.325,1.35135135 C15,1.35135135 15,1.35135135 15,0.675675676 C15,0 15,0 14.325,0 Z M0.675,13.6486486 C0,13.6486486 0,13.6486486 0,14.3243243 C0,15 0,15 0.675,15 C1.35,15 1.35,15 1.35,14.3243243 C1.365,13.6486486 1.365,13.6486486 0.675,13.6486486 Z M3.405,13.6486486 C2.73,13.6486486 2.73,13.6486486 2.73,14.3243243 C2.73,15 2.73,15 3.405,15 C4.08,15 4.08,15 4.08,14.3243243 C4.08,13.6486486 4.095,13.6486486 3.405,13.6486486 Z M0.675,10.9159159 C0,10.9159159 0,10.9159159 0,11.5915916 C0,12.2672673 0,12.2672673 0.675,12.2672673 C1.35,12.2672673 1.35,12.2672673 1.35,11.5915916 C1.365,10.9159159 1.365,10.9159159 0.675,10.9159159 Z M6.135,13.6486486 C5.46,13.6486486 5.46,13.6486486 5.46,14.3243243 C5.46,15 5.46,15 6.135,15 C6.81,15 6.81,15 6.81,14.3243243 C6.825,13.6486486 6.825,13.6486486 6.135,13.6486486 Z M0.675,8.18318318 C0,8.18318318 0,8.18318318 0,8.85885886 C0,9.53453453 0,9.53453453 0.675,9.53453453 C1.35,9.53453453 1.35,9.53453453 1.35,8.85885886 C1.365,8.18318318 1.365,8.18318318 0.675,8.18318318 Z M8.865,13.6486486 C8.19,13.6486486 8.19,13.6486486 8.19,14.3243243 C8.19,15 8.19,15 8.865,15 C9.54,15 9.54,15 9.54,14.3243243 C9.54,13.6486486 9.54,13.6486486 8.865,13.6486486 Z M0.675,5.46546547 C0,5.46546547 0,5.46546547 0,6.14114114 C0,6.81681682 0,6.81681682 0.675,6.81681682 C1.35,6.81681682 1.35,6.81681682 1.35,6.14114114 C1.365,5.46546547 1.365,5.46546547 0.675,5.46546547 Z M0.675,2.73273273 C0,2.73273273 0,2.73273273 0,3.40840841 C0,4.08408408 0,4.08408408 0.675,4.08408408 C1.35,4.08408408 1.35,4.08408408 1.35,3.40840841 C1.365,2.73273273 1.365,2.73273273 0.675,2.73273273 Z M11.595,13.6486486 C10.92,13.6486486 10.92,13.6486486 10.92,14.3243243 C10.92,15 10.92,15 11.595,15 C12.27,15 12.27,15 12.27,14.3243243 C12.27,13.6486486 12.27,13.6486486 11.595,13.6486486 Z M0.675,0 C0,0 0,0 0,0.675675676 C0,1.35135135 0,1.35135135 0.675,1.35135135 C1.35,1.35135135 1.35,1.35135135 1.35,0.675675676 C1.365,0 1.365,0 0.675,0 Z M14.325,13.6486486 C13.65,13.6486486 13.65,13.6486486 13.65,14.3243243 C13.65,15 13.65,15 14.325,15 C15,15 15,15 15,14.3093093 C15,13.6486486 15,13.6486486 14.325,13.6486486 Z M3.405,0 C2.73,0 2.73,0 2.73,0.675675676 C2.73,1.35135135 2.73,1.35135135 3.405,1.35135135 C4.08,1.35135135 4.08,1.35135135 4.08,0.675675676 C4.095,0 4.095,0 3.405,0 Z M14.325,10.9159159 C13.65,10.9159159 13.65,10.9159159 13.65,11.5915916 C13.65,12.2672673 13.65,12.2672673 14.325,12.2672673 C15,12.2672673 15,12.2672673 15,11.5915916 C15,10.9159159 15,10.9159159 14.325,10.9159159 Z M6.135,0 C5.46,0 5.46,0 5.46,0.675675676 C5.46,1.35135135 5.46,1.35135135 6.135,1.35135135 C6.81,1.35135135 6.81,1.35135135 6.81,0.675675676 C6.825,0 6.825,0 6.135,0 Z M14.325,8.18318318 C13.65,8.18318318 13.65,8.18318318 13.65,8.85885886 C13.65,9.53453453 13.65,9.53453453 14.325,9.53453453 C15,9.53453453 15,9.53453453 15,8.85885886 C15,8.18318318 15,8.18318318 14.325,8.18318318 Z M8.865,0 C8.19,0 8.19,0 8.19,0.675675676 C8.19,1.35135135 8.19,1.35135135 8.865,1.35135135 C9.54,1.35135135 9.54,1.35135135 9.54,0.675675676 C9.54,0 9.54,0 8.865,0 Z M14.325,5.46546547 C13.65,5.46546547 13.65,5.46546547 13.65,6.14114114 C13.65,6.81681682 13.65,6.81681682 14.325,6.81681682 C15,6.81681682 15,6.81681682 15,6.14114114 C15,5.46546547 15,5.46546547 14.325,5.46546547 Z M14.325,2.73273273 C13.65,2.73273273 13.65,2.73273273 13.65,3.40840841 C13.65,4.08408408 13.65,4.08408408 14.325,4.08408408 C15,4.08408408 15,4.08408408 15,3.40840841 C15,2.73273273 15,2.73273273 14.325,2.73273273 Z M11.595,0 C10.92,0 10.92,0 10.92,0.675675676 C10.92,1.35135135 10.92,1.35135135 11.595,1.35135135 C12.27,1.35135135 12.27,1.35135135 12.27,0.675675676 C12.27,0 12.27,0 11.595,0 Z M12.27,2.73273273 L2.73,2.73273273 L2.73,12.2822823 L12.27,12.2822823 L12.27,2.73273273 Z" id="Shape"></path>
                </g>
            </g>
        </g>
    </g>
</svg>