<?xml version="1.0" encoding="UTF-8"?>
<svg width="15px" height="15px" viewBox="0 0 15 15" version="1.1" xmlns="http://www.w3.org/2000/svg" xmlns:xlink="http://www.w3.org/1999/xlink">
    <!-- Generator: Sketch 51.3 (57544) - http://www.bohemiancoding.com/sketch -->
    <title>Elipse</title>
    <desc>Created with Sketch.</desc>
    <defs></defs>
    <g id="Page-1" stroke="none" stroke-width="1" fill="none" fill-rule="evenodd">
        <g id="Blisk---Screenshot-Editor-Copy" transform="translate(-162.000000, -228.000000)" fill="#979EAB" fill-rule="nonzero">
            <g id="Group" transform="translate(158.000000, 90.000000)">
                <g id="Elipse" transform="translate(4.000000, 138.000000)">
                    <ellipse id="Oval" cx="7.5" cy="7.52130682" rx="4.70630372" ry="4.66619318"></ellipse>
                    <path d="M7.47851003,0 C7.47851003,0 7.47851003,0 7.47851003,0 C7.07020057,0 6.74355301,0.323863636 6.747851,0.724431818 C6.747851,1.125 7.07449857,1.44886364 7.47851003,1.44886364 C7.47851003,1.44886364 7.47851003,1.44886364 7.47851003,1.44886364 C7.88252149,1.44886364 8.20916905,1.125 8.20916905,0.724431818 C8.20916905,0.323863636 7.88252149,0 7.47851003,0 C7.47851003,0 7.47851003,0 7.47851003,0 Z M5.12320917,0.413352273 C5.04154728,0.413352273 4.95558739,0.426136364 4.8739255,0.455965909 C4.86962751,0.455965909 4.86532951,0.460227273 4.86103152,0.460227273 C4.48710602,0.600852273 4.29369628,1.01420455 4.43123209,1.38920455 C4.53868195,1.68323864 4.81805158,1.86221591 5.11891117,1.86221591 C5.20057307,1.86221591 5.28653295,1.84943182 5.37249284,1.81960227 C5.75071633,1.68323864 5.94412607,1.265625 5.80659026,0.890625 C5.6991404,0.596590909 5.41977077,0.413352273 5.12320917,0.413352273 Z M3.05587393,1.61079545 C2.88825215,1.61079545 2.72492837,1.66619318 2.58739255,1.78125 C2.58309456,1.78551136 2.58309456,1.78551136 2.57879656,1.78977273 C2.27363897,2.04971591 2.23925501,2.50568182 2.49713467,2.80823864 C2.64326648,2.97869318 2.84527221,3.06392045 3.05587393,3.06392045 C3.2234957,3.06392045 3.39111748,3.00852273 3.5286533,2.89346591 C3.83810888,2.63352273 3.87249284,2.17755682 3.61031519,1.87073864 C3.46848138,1.69602273 3.26217765,1.61079545 3.05587393,1.61079545 Z M1.53008596,3.43892045 C1.2765043,3.43892045 1.02722063,3.57102273 0.893982808,3.80539773 C0.893982808,3.80539773 0.893982808,3.80539773 0.893982808,3.80539773 C0.893982808,3.80539773 0.893982808,3.80539773 0.893982808,3.80539773 C0.893982808,3.80539773 0.893982808,3.80539773 0.893982808,3.80539773 C0.893982808,3.80539773 0.893982808,3.80539773 0.893982808,3.80539773 C0.696275072,4.15482955 0.816618911,4.59375 1.16905444,4.79403409 C1.28080229,4.85795455 1.40544413,4.88778409 1.53008596,4.88778409 C1.78366762,4.88778409 2.03295129,4.75568182 2.16618911,4.52130682 C2.36389685,4.171875 2.24355301,3.73295455 1.89111748,3.53267045 C1.77507163,3.46875 1.65472779,3.43892045 1.53008596,3.43892045 Z M0.73495702,5.671875 C0.38252149,5.671875 0.0730659026,5.92329545 0.0128939828,6.28125 C0.0128939828,6.28125 0.0128939828,6.28125 0.0128939828,6.28125 C0.0128939828,6.28125 0.0128939828,6.28551136 0.0128939828,6.28551136 C-0.0515759312,6.67755682 0.219197708,7.04829545 0.614613181,7.11221591 C0.653295129,7.12073864 0.691977077,7.12073864 0.73495702,7.12073864 C1.08739255,7.12073864 1.39684814,6.86931818 1.45702006,6.51136364 C1.52148997,6.11505682 1.25071633,5.74431818 0.85530086,5.68039773 C0.812320917,5.67613636 0.773638968,5.671875 0.73495702,5.671875 Z M0.76504298,8.05397727 C0.717765043,8.05397727 0.6747851,8.05823864 0.627507163,8.06676136 C0.232091691,8.14346591 -0.0300859599,8.51846591 0.047277937,8.91051136 C0.047277937,8.91051136 0.047277937,8.91051136 0.047277937,8.91477273 C0.047277937,8.91477273 0.047277937,8.91477273 0.047277937,8.91477273 C0.047277937,8.91477273 0.047277937,8.91903409 0.047277937,8.91903409 C0.116045845,9.26420455 0.421203438,9.50284091 0.76504298,9.50284091 C0.812320917,9.50284091 0.85530086,9.49857955 0.902578797,9.49005682 C1.29799427,9.41335227 1.56017192,9.03409091 1.48280802,8.64204545 C1.41833811,8.296875 1.10888252,8.05397727 0.76504298,8.05397727 Z M1.62034384,10.2698864 C1.49140401,10.2698864 1.36246418,10.3039773 1.24212034,10.3721591 C0.898280802,10.5767045 0.786532951,11.0198864 0.992836676,11.3650568 C0.992836676,11.3650568 0.992836676,11.3650568 0.992836676,11.3693182 C0.992836676,11.3693182 0.992836676,11.3693182 0.992836676,11.3693182 C0.992836676,11.3693182 0.99713467,11.3735795 0.99713467,11.3735795 C1.13467049,11.5951705 1.37535817,11.71875 1.62034384,11.71875 C1.74928367,11.71875 1.8782235,11.6846591 1.99856734,11.6164773 C2.34240688,11.4119318 2.45415473,10.9644886 2.247851,10.6235795 C2.11031519,10.3934659 1.86962751,10.2698864 1.62034384,10.2698864 Z M3.19770774,12.0553977 C2.98280802,12.0553977 2.7722063,12.1491477 2.6260745,12.3238636 C2.37249284,12.6349432 2.42406877,13.0909091 2.73782235,13.3423295 C2.73782235,13.3423295 2.73782235,13.3423295 2.73782235,13.3423295 C2.87106017,13.4488636 3.03438395,13.5042614 3.19340974,13.5042614 C3.40830946,13.5042614 3.61891117,13.4105114 3.76504298,13.2357955 C4.01862464,12.9247159 3.96704871,12.46875 3.65329513,12.2173295 C3.52005731,12.1065341 3.35673352,12.0553977 3.19770774,12.0553977 Z M5.29083095,13.1974432 C4.98567335,13.1974432 4.70200573,13.3892045 4.59885387,13.6917614 C4.46991404,14.0710227 4.67621777,14.4801136 5.05873926,14.6079545 C5.05873926,14.6079545 5.05873926,14.6079545 5.05873926,14.6079545 C5.05873926,14.6079545 5.05873926,14.6079545 5.05873926,14.6079545 C5.13610315,14.6335227 5.21346705,14.6463068 5.29083095,14.6463068 C5.59598854,14.6463068 5.87965616,14.4545455 5.98280802,14.1519886 C6.11174785,13.7727273 5.90544413,13.3636364 5.52292264,13.2357955 C5.44985673,13.2102273 5.36819484,13.1974432 5.29083095,13.1974432 Z M7.65902579,13.546875 C7.65472779,13.546875 7.64613181,13.546875 7.64183381,13.546875 C7.23782235,13.5553977 6.91977077,13.8877841 6.92836676,14.2883523 C6.93696275,14.6803977 7.26361032,14.9957386 7.65902579,14.9957386 C7.66332378,14.9957386 7.67191977,14.9957386 7.68051576,14.9957386 C7.68051576,14.9957386 7.68051576,14.9957386 7.68051576,14.9957386 C7.68481375,14.9957386 7.68481375,14.9957386 7.68911175,14.9957386 C8.08882521,14.9829545 8.40687679,14.6505682 8.39398281,14.2542614 C8.38108883,13.8622159 8.05444126,13.546875 7.65902579,13.546875 Z M10.0057307,13.0738636 C9.91547278,13.0738636 9.8252149,13.0909091 9.73495702,13.125 C9.36103152,13.2741477 9.17621777,13.6960227 9.32664756,14.0667614 C9.44269341,14.3522727 9.71346705,14.5227273 10.0057307,14.5227273 C10.0959885,14.5227273 10.1862464,14.5056818 10.2722063,14.4715909 C10.2722063,14.4715909 10.2722063,14.4715909 10.2765043,14.4715909 C10.2765043,14.4715909 10.2765043,14.4715909 10.2765043,14.4715909 C10.2765043,14.4715909 10.2808023,14.4715909 10.2808023,14.4673295 C10.6504298,14.3181818 10.8352436,13.9005682 10.6848138,13.5298295 C10.5687679,13.2443182 10.2936963,13.0738636 10.0057307,13.0738636 Z M12.0386819,11.8210227 C11.8667622,11.8210227 11.6905444,11.8806818 11.5530086,12.0042614 C11.252149,12.2727273 11.226361,12.7286932 11.4971347,13.0269886 C11.6432665,13.1846591 11.8409742,13.2698864 12.0429799,13.2698864 C12.2148997,13.2698864 12.3868195,13.2102273 12.5286533,13.0866477 C12.5286533,13.0866477 12.5329513,13.0823864 12.5329513,13.0823864 C12.5329513,13.0823864 12.5329513,13.0823864 12.5329513,13.0823864 C12.8338109,12.8139205 12.8595989,12.3579545 12.5888252,12.0596591 C12.4383954,11.90625 12.2363897,11.8210227 12.0386819,11.8210227 Z M13.512894,9.95454545 C13.2507163,9.95454545 12.9971347,10.0951705 12.8681948,10.3380682 C12.6790831,10.6917614 12.8123209,11.1306818 13.1690544,11.3181818 C13.2765043,11.3778409 13.3968481,11.4034091 13.512894,11.4034091 C13.7750716,11.4034091 14.0286533,11.2627841 14.1575931,11.0198864 C14.1575931,11.0198864 14.1575931,11.0198864 14.1575931,11.0198864 C14.1575931,11.015625 14.1618911,11.015625 14.1618911,11.0113636 C14.3467049,10.6576705 14.213467,10.2230114 13.8567335,10.0355114 C13.7492837,9.984375 13.6289398,9.95454545 13.512894,9.95454545 Z M14.247851,7.70028409 C13.8868195,7.70028409 13.5730659,7.96448864 13.525788,8.32670455 C13.469914,8.72301136 13.7492837,9.08948864 14.1489971,9.140625 C14.1833811,9.14488636 14.217765,9.14914773 14.247851,9.14914773 C14.6045845,9.14914773 14.9183381,8.88920455 14.969914,8.52698864 C14.969914,8.52272727 14.969914,8.51846591 14.969914,8.51420455 C15.02149,8.11789773 14.7421203,7.75568182 14.3424069,7.70454545 C14.3123209,7.70028409 14.282235,7.70028409 14.247851,7.70028409 Z M14.1575931,5.32670455 C14.1060172,5.32670455 14.0544413,5.33096591 14.0028653,5.34375 C13.6074499,5.42897727 13.3581662,5.81676136 13.4441261,6.20454545 C13.517192,6.54545455 13.8223496,6.77556818 14.1575931,6.77556818 C14.2091691,6.77556818 14.260745,6.77130682 14.3123209,6.75852273 C14.7077364,6.67329545 14.9570201,6.28551136 14.8710602,5.89772727 C14.8710602,5.89772727 14.8710602,5.89772727 14.8710602,5.89772727 C14.8710602,5.89772727 14.8710602,5.89772727 14.8710602,5.89772727 C14.8710602,5.89772727 14.8710602,5.89772727 14.8710602,5.89772727 C14.7936963,5.55681818 14.4928367,5.32670455 14.1575931,5.32670455 Z M13.2421203,3.13210227 C13.1088825,3.13210227 12.9713467,3.17045455 12.8510029,3.24715909 C12.5114613,3.46448864 12.4126074,3.91193182 12.6275072,4.24857955 C12.765043,4.46590909 13.0014327,4.58522727 13.2421203,4.58522727 C13.3753582,4.58522727 13.512894,4.546875 13.6332378,4.47017045 C13.9727794,4.25710227 14.0716332,3.80965909 13.8610315,3.47301136 C13.8610315,3.46875 13.8567335,3.46448864 13.8567335,3.46448864 C13.7148997,3.25142045 13.482808,3.13210227 13.2421203,3.13210227 Z M11.6217765,1.38494318 C11.4025788,1.38494318 11.1833811,1.48295455 11.0415473,1.67045455 C10.7965616,1.99005682 10.8567335,2.44176136 11.1790831,2.68465909 C11.3123209,2.78693182 11.4670487,2.83380682 11.6217765,2.83380682 C11.8409742,2.83380682 12.0601719,2.73579545 12.2020057,2.54829545 C12.4469914,2.22869318 12.3868195,1.77698864 12.0644699,1.53409091 C12.0644699,1.53409091 12.0644699,1.53409091 12.0644699,1.53409091 C12.0644699,1.53409091 12.0644699,1.53409091 12.0644699,1.53409091 C12.0644699,1.53409091 12.0644699,1.53409091 12.0644699,1.53409091 C11.9312321,1.43607955 11.7765043,1.38494318 11.6217765,1.38494318 Z M9.49426934,0.298295455 C9.18051576,0.298295455 8.89255014,0.498579545 8.79799427,0.809659091 C8.67765043,1.19318182 8.89684814,1.59801136 9.27936963,1.71732955 C9.35243553,1.73863636 9.42550143,1.75142045 9.49426934,1.75142045 C9.80802292,1.75142045 10.0959885,1.55113636 10.1905444,1.24005682 C10.3108883,0.860795455 10.0959885,0.455965909 9.71346705,0.336647727 C9.70916905,0.336647727 9.70916905,0.336647727 9.70487106,0.332386364 C9.70487106,0.332386364 9.70487106,0.332386364 9.70487106,0.332386364 C9.64040115,0.311079545 9.56733524,0.298295455 9.49426934,0.298295455 Z" id="Shape"></path>
                </g>
            </g>
        </g>
    </g>
</svg>