<?xml version="1.0" encoding="UTF-8"?>
<svg width="20px" height="20px" viewBox="0 0 20 20" version="1.1" xmlns="http://www.w3.org/2000/svg" xmlns:xlink="http://www.w3.org/1999/xlink">
    <!-- Generator: Sketch 51.3 (57544) - http://www.bohemiancoding.com/sketch -->
    <title>Pencil</title>
    <desc>Created with Sketch.</desc>
    <defs></defs>
    <g id="Page-1" stroke="none" stroke-width="1" fill="none" fill-rule="evenodd">
        <g id="Blisk---Screenshot-Editor-Copy" transform="translate(-158.000000, -363.000000)" fill="#979EAB" fill-rule="nonzero">
            <g id="Group" transform="translate(158.000000, 90.000000)">
                <g id="Pencil" transform="translate(0.000000, 273.000000)">
                    <path d="M19.5824176,2.57142857 L17.032967,0.021978022 C17.010989,-3.46944695e-16 16.989011,-3.46944695e-16 16.967033,0.021978022 L15.2527473,1.73626374 C15.2307692,1.75824176 15.2307692,1.78021978 15.2527473,1.8021978 L17.8021978,4.35164835 C17.8021978,4.35164835 17.8241758,4.37362637 17.8461538,4.37362637 C17.8681319,4.37362637 17.8681319,4.37362637 17.8901099,4.35164835 L19.6043956,2.63736264 C19.6043956,2.63736264 19.6263736,2.61538462 19.6263736,2.59340659 C19.6043956,2.59340659 19.6043956,2.59340659 19.5824176,2.57142857 Z" id="Shape"></path>
                    <path d="M14.8791209,2.15384615 C14.8571429,2.13186813 14.8351648,2.13186813 14.8131868,2.15384615 L8.41758242,8.54945055 C8.41758242,8.54945055 8.3956044,8.57142857 8.3956044,8.59340659 C8.3956044,8.61538462 8.3956044,8.61538462 8.41758242,8.63736264 L10.989011,11.2087912 C10.989011,11.2087912 11.010989,11.2307692 11.032967,11.2307692 C11.0549451,11.2307692 11.0549451,11.2307692 11.0769231,11.2087912 L17.4725275,4.81318681 C17.4945055,4.79120879 17.4945055,4.76923077 17.4725275,4.74725275 L14.8791209,2.15384615 Z" id="Shape"></path>
                    <path d="M7.16483516,12.4835165 C7.16483516,12.4835165 7.18681319,12.4835165 7.16483516,12.4835165 L10.5934066,11.6263736 C10.6153846,11.6263736 10.6153846,11.6043956 10.6373626,11.5824176 C10.6373626,11.5604396 10.6373626,11.5384615 10.6153846,11.5384615 L8.06593407,8.98901099 C8.04395604,8.96703297 8.04395604,8.96703297 8.02197802,8.96703297 C8,8.96703297 8,8.98901099 7.97802198,9.01098901 L7.12087912,12.4175824 C7.12087912,12.4395604 7.12087912,12.4615385 7.14285714,12.4615385 C7.14285714,12.4835165 7.16483516,12.4835165 7.16483516,12.4835165 Z" id="Shape"></path>
                    <path d="M12.3076923,18.967033 C8.96703297,18.967033 7.84615385,16.1538462 6.65934066,13.1868132 C5.40659341,10.0879121 4.13186813,6.87912088 0.21978022,6.87912088 C0.197802198,6.87912088 0.175824176,6.9010989 0.175824176,6.92307692 L0.175824176,7.64835165 C0.175824176,7.67032967 0.197802198,7.69230769 0.21978022,7.69230769 C3.56043956,7.69230769 4.68131868,10.5054945 5.86813187,13.4725275 C7.12087912,16.5714286 8.3956044,19.7802198 12.3076923,19.7802198 C12.3296703,19.7802198 12.3516484,19.7582418 12.3516484,19.7362637 L12.3516484,19.010989 C12.3516484,18.989011 12.3296703,18.967033 12.3076923,18.967033 Z" id="Shape"></path>
                </g>
            </g>
        </g>
    </g>
</svg>