<?xml version="1.0" encoding="UTF-8"?>
<svg width="8px" height="13px" viewBox="0 0 8 13" version="1.1" xmlns="http://www.w3.org/2000/svg" xmlns:xlink="http://www.w3.org/1999/xlink">
    <!-- Generator: Sketch 51.3 (57544) - http://www.bohemiancoding.com/sketch -->
    <title>Phone 2</title>
    <desc>Created with Sketch.</desc>
    <defs></defs>
    <g id="Page-1" stroke="none" stroke-width="1" fill="none" fill-rule="evenodd">
        <g id="Blisk---Media" transform="translate(-1059.000000, -197.000000)" fill-rule="nonzero">
            <g id="TXT" transform="translate(1058.000000, 194.000000)">
                <g id="Phone-2" transform="translate(1.000000, 3.000000)">
                    <rect id="Rectangle-3" stroke="#3C446B" stroke-width="0.687500015" x="0.343750007" y="0.343750007" width="7.31249999" height="12.3125" rx="2.06250004"></rect>
                    <rect id="Rectangle-10" stroke="#3C446B" stroke-width="0.5" x="0.25" y="1.61842105" width="7.5" height="9.76315789" rx="2.06250004"></rect>
                    <path d="M5.73762348,4.84031411 L2.72905475,8.02111085 L3.01087359,8.32062258 C3.03251877,8.34362668 3.04534532,8.3738768 3.04699505,8.4058114 C3.05077726,8.47902551 2.99601343,8.54152406 2.9246766,8.5454058 L1.80939894,8.60609287 C1.80333225,8.60642298 1.79725043,8.60631403 1.79119865,8.60576682 C1.72003728,8.5993323 1.66743204,8.53491031 1.67370157,8.46187627 L1.77171917,7.32006442 C1.77445382,7.28820836 1.7883012,7.25843609 1.81071544,7.23622129 C1.86210294,7.18529106 1.9439892,7.18675801 1.99361352,7.2394978 L2.26913205,7.53231369 L5.27770077,4.35151694 L5.00218225,4.05870106 C4.98053706,4.03569696 4.96771051,4.00544685 4.96606078,3.97351224 C4.96227857,3.90029813 5.01704241,3.83779959 5.08837924,3.83391784 L6.2036569,3.77323078 C6.20972359,3.77290066 6.21580541,3.77300961 6.22185718,3.77355682 C6.29301856,3.77999134 6.34562379,3.84441333 6.33935426,3.91744738 L6.24133667,5.05925923 C6.23860202,5.09111529 6.22475464,5.12088756 6.20234039,5.14310235 C6.1509529,5.19403258 6.06906664,5.19256564 6.01944231,5.13982584 L5.73762348,4.84031411 Z" id="Shape" fill="#3C446B"></path>
                </g>
            </g>
        </g>
    </g>
</svg>