<?xml version="1.0" encoding="UTF-8"?>
<svg width="10px" height="10px" viewBox="0 0 10 10" version="1.1" xmlns="http://www.w3.org/2000/svg" xmlns:xlink="http://www.w3.org/1999/xlink">
    <!-- Generator: Sketch 51.3 (57544) - http://www.bohemiancoding.com/sketch -->
    <title>Shape</title>
    <desc>Created with Sketch.</desc>
    <defs></defs>
    <g id="Page-1" stroke="none" stroke-width="1" fill="none" fill-rule="evenodd">
        <g id="Blisk---Media-II" transform="translate(-1262.000000, -135.000000)" fill="#707090" fill-rule="nonzero">
            <path d="M1269.53043,142.06874 C1269.14919,142.06874 1268.80794,142.218315 1268.54794,142.454151 L1264.96752,140.371654 C1264.99336,140.25624 1265.01335,140.139988 1265.01335,140.019985 C1265.01335,139.899982 1264.99294,139.784149 1264.96752,139.668316 L1268.50751,137.605393 C1268.77751,137.855396 1269.13459,138.011637 1269.53043,138.011637 C1270.36501,138.011637 1271.03752,137.340385 1271.03752,136.505809 C1271.03752,135.672909 1270.36459,135 1269.53043,135 C1268.69751,135 1268.02461,135.672909 1268.02461,136.505409 C1268.02461,136.627069 1268.04502,136.741245 1268.07044,136.857078 L1264.53042,138.921657 C1264.26001,138.670416 1263.90335,138.514576 1263.50708,138.514576 C1262.67251,138.514576 1262,139.187085 1262,140.019985 C1262,140.852885 1262.67251,141.525812 1263.50708,141.525812 C1263.90291,141.525812 1264.26001,141.369553 1264.53001,141.119569 L1268.10416,143.206656 C1268.07958,143.312911 1268.06416,143.423736 1268.06416,143.534161 C1268.06416,144.342496 1268.7229,145 1269.53,145 C1270.33791,145 1270.99707,144.342915 1270.99707,143.534161 C1270.99707,142.725406 1270.33835,142.06874 1269.53043,142.06874 Z" id="Shape"></path>
        </g>
    </g>
</svg>