<?xml version="1.0" encoding="UTF-8"?>
<svg width="12px" height="14px" viewBox="0 0 12 14" version="1.1" xmlns="http://www.w3.org/2000/svg" xmlns:xlink="http://www.w3.org/1999/xlink">
    <!-- Generator: Sketch 51.3 (57544) - http://www.bohemiancoding.com/sketch -->
    <title>Text</title>
    <desc>Created with Sketch.</desc>
    <defs></defs>
    <g id="Page-1" stroke="none" stroke-width="1" fill="none" fill-rule="evenodd">
        <g id="Blisk---Screenshot-Editor-Copy" transform="translate(-163.000000, -433.000000)" fill="#979EAB" fill-rule="nonzero">
            <g id="Group" transform="translate(158.000000, 90.000000)">
                <path d="M8.61395349,344.79021 C7.98604651,344.79021 7.51162791,345 7.17674419,345.41958 C6.84186047,345.839161 6.6744186,346.454545 6.6744186,347.265734 L6.6744186,347.307692 L5,347.307692 L5,343 L17,343 L17,347.321678 L15.3255814,347.321678 L15.3255814,347.27972 C15.3255814,346.468531 15.1581395,345.853147 14.8232558,345.433566 C14.4883721,345 14,344.79021 13.372093,344.79021 L12.8697674,344.79021 L12.8697674,354.384615 C12.8697674,354.818182 12.9255814,355.097902 13.0372093,355.20979 C13.1488372,355.321678 13.4139535,355.377622 13.8186047,355.377622 L14.7674419,355.377622 L14.7674419,357 L7.30232558,357 L7.30232558,355.363636 L8.18139535,355.363636 C8.55813953,355.363636 8.80930233,355.321678 8.93488372,355.223776 C9.06046512,355.125874 9.11627907,354.846154 9.11627907,354.370629 L9.11627907,344.776224 L8.61395349,344.79021 Z" id="Text"></path>
            </g>
        </g>
    </g>
</svg>