<?xml version="1.0" encoding="UTF-8"?>
<svg width="16px" height="16px" viewBox="0 0 16 16" version="1.1" xmlns="http://www.w3.org/2000/svg" xmlns:xlink="http://www.w3.org/1999/xlink">
    <!-- Generator: Sketch 51.3 (57544) - http://www.bohemiancoding.com/sketch -->
    <title>Shape</title>
    <desc>Created with Sketch.</desc>
    <defs></defs>
    <g id="Page-1" stroke="none" stroke-width="1" fill="none" fill-rule="evenodd">
        <g id="Blisk---Screenshot-Editor-Copy" transform="translate(-161.000000, -570.000000)" fill="#979EAB" fill-rule="nonzero">
            <g id="Group" transform="translate(158.000000, 90.000000)">
                <path d="M16.630713,482.325655 C13.5301645,479.293268 8.55758684,479.236054 5.34003656,482.096795 L5.34003656,481.467432 C5.34003656,480.838069 4.81352834,480.323135 4.17001828,480.323135 C3.52650823,480.323135 3,480.838069 3,481.467432 L3,484.900322 C3,485.529685 3.52650823,486.044619 4.17001828,486.044619 L7.68007313,486.044619 C8.32358318,486.044619 8.85009141,485.529685 8.85009141,484.900322 C8.85009141,484.270959 8.32358318,483.756026 7.68007313,483.756026 L6.91956124,483.756026 C9.20109689,481.724899 12.7696527,481.782114 14.9634369,483.956277 C16.0749543,485.043359 16.6892139,486.47373 16.6892139,487.989923 C16.6892139,489.506116 16.0749543,490.965095 14.9634369,492.023569 C12.6819013,494.254948 8.96709324,494.254948 6.68555759,492.023569 C6.21755027,491.56585 5.48628885,491.56585 5.01828154,492.023569 C4.55027422,492.481288 4.55027422,493.196473 5.01828154,493.654192 C6.62705667,495.2276 8.70383912,496 10.809872,496 C12.9159049,496 14.9926874,495.2276 16.6014625,493.654192 C18.1517367,492.137999 19,490.13548 19,487.989923 C19,485.844367 18.1809872,483.841848 16.630713,482.325655 Z" id="Shape"></path>
            </g>
        </g>
    </g>
</svg>